<?xml version="1.0" encoding="UTF-8" standalone="no" ?>
<!DOCTYPE svg PUBLIC "-//W3C//DTD SVG 1.1//EN" "http://www.w3.org/Graphics/SVG/1.1/DTD/svg11.dtd">
<svg xmlns="http://www.w3.org/2000/svg" xmlns:xlink="http://www.w3.org/1999/xlink" version="1.1" width="1080" height="1080" viewBox="0 0 1080 1080" xml:space="preserve">
<desc>Created with Fabric.js 5.2.4</desc>
<defs>
</defs>
<g transform="matrix(1 0 0 1 540 540)" id="05fb0f11-7348-4921-84d3-920b12e39ba4"  >
<rect style="stroke: none; stroke-width: 1; stroke-dasharray: none; stroke-linecap: butt; stroke-dashoffset: 0; stroke-linejoin: miter; stroke-miterlimit: 4; fill: rgb(255,255,255); fill-rule: nonzero; opacity: 1; visibility: hidden;" vector-effect="non-scaling-stroke"  x="-540" y="-540" rx="0" ry="0" width="1080" height="1080" />
</g>
<g transform="matrix(1 0 0 1 540 540)" id="2f93150f-ece8-47cf-bbcf-960255bb43c2"  >
</g>
<g transform="matrix(33.75 0 0 33.75 540 540)"  >
<g style=""   >
		<g transform="matrix(1 0 0 1 -0.35 -0.39)"  >
<path style="stroke: none; stroke-width: 1; stroke-dasharray: none; stroke-linecap: butt; stroke-dashoffset: 0; stroke-linejoin: miter; stroke-miterlimit: 4; fill: rgb(13,13,13); fill-rule: nonzero; opacity: 1;" vector-effect="non-scaling-stroke"  transform=" translate(-15.65, -13.11)" d="M 10.7047 0.300134 C 14.5229 -0.165019 18.3761 -0.00129005 22.205 0.203806 C 22.711 0.188474 23.2159 0.0892529 23.7222 0.14624 C 24.1559 0.198599 24.5444 0.430597 24.8919 0.690365 C 25.592 1.2235 26.1794 1.9004 26.6784 2.63226 C 27.2689 3.5105 27.3973 4.62421 27.9925 5.501 C 28.7782 6.62888 30.0312 7.30578 30.7779 8.46751 C 31.2823 9.22136 31.3675 10.1878 31.2722 11.075 C 31.1894 11.872 30.7844 12.5931 30.2618 13.1714 C 29.5636 13.9357 28.7622 14.623 28.2411 15.5382 C 27.8977 16.1405 27.7656 16.8408 27.429 17.4451 C 26.6276 18.6812 25.4577 19.6046 24.2364 20.3665 C 22.4698 21.4611 20.5475 22.2439 18.7026 23.18 C 17.8362 23.6125 17.0037 24.1175 16.1162 24.5049 C 15.2968 24.8723 14.4 24.9677 13.5291 25.1306 C 12.7715 25.2498 12.0318 25.4615 11.2842 25.6319 C 9.45089 26.0415 7.56312 26.3597 5.68405 26.154 C 4.39992 26.0117 3.09447 25.5341 2.19266 24.5462 C 1.84231 24.139 1.51553 23.6865 1.33236 23.1725 C 1.22605 21.6116 1.43222 20.0541 1.62969 18.5102 C 1.81651 17.024 1.92899 15.4983 1.61735 14.021 C 1.31525 12.8509 0.598573 11.8555 0.23813 10.7076 C -0.0443346 9.83896 -0.107447 8.86005 0.224385 7.99657 C 0.761544 6.97919 1.82941 6.38676 2.32113 5.33582 C 2.60135 4.77666 2.65661 4.1362 2.63725 3.51715 C 3.51606 2.61057 4.61618 1.96346 5.76652 1.49686 C 7.34714 0.855541 9.02509 0.515643 10.7047 0.300134 Z" stroke-linecap="round" />
</g>
		<g transform="matrix(1 0 0 1 -0.35 -0.39)"  >
<path style="stroke: none; stroke-width: 1; stroke-dasharray: none; stroke-linecap: butt; stroke-dashoffset: 0; stroke-linejoin: miter; stroke-miterlimit: 4; fill: rgb(252,252,252); fill-rule: nonzero; opacity: 1;" vector-effect="non-scaling-stroke"  transform=" translate(-15.65, -13.11)" d="M 8.88149 1.70372 C 12.7581 1.14706 16.6857 0.907969 20.6008 1.04742 C 21.5241 1.1067 22.4535 1.04883 23.3737 1.16089 C 24.1524 1.26421 24.8551 1.70372 25.3599 2.28832 C 26.5572 3.66557 26.9275 5.55375 28.1502 6.91378 C 27.6249 6.96883 27.1004 6.82148 26.5774 6.89148 C 26.4205 6.90532 26.2818 6.98407 26.156 7.07214 C 26.9515 6.97306 27.7835 7.00214 28.5286 7.32281 C 29.5475 7.73635 30.381 8.6055 30.6908 9.65699 C 30.9297 10.4765 30.8004 11.3826 30.373 12.1196 C 29.8719 12.9885 29.0524 13.6473 28.1422 14.0623 C 28.1844 14.0818 28.2275 14.1004 28.2706 14.1201 C 28.4358 14.0586 28.5828 13.9618 28.7294 13.8672 C 28.75 13.909 28.7908 13.9937 28.8113 14.0355 C 28.5768 14.1873 28.3205 14.3194 28.1473 14.545 C 27.7382 15.0384 27.6103 15.6803 27.3789 16.2604 C 27.1318 16.9339 26.6587 17.494 26.156 17.997 C 24.945 19.156 23.4533 19.9662 21.9618 20.7142 C 20.8953 21.23 19.8113 21.7098 18.7398 22.2157 C 17.8011 22.6487 16.926 23.2014 15.9843 23.6279 C 15.7755 23.7132 15.5675 23.8157 15.3401 23.8388 C 15.0188 23.8416 14.7009 23.7499 14.3788 23.7869 C 13.8149 23.8461 13.2905 24.0728 12.7595 24.2535 C 11.6595 24.6656 10.4956 24.8694 9.3366 25.0354 C 8.03205 25.2067 6.70552 25.2841 5.3964 25.1178 C 4.32697 24.9747 3.20873 24.669 2.42264 23.8944 C 2.00405 23.4529 1.65651 22.8697 1.71272 22.2431 C 1.69874 19.7262 2.37955 17.2439 2.17068 14.7228 C 2.08309 13.9525 1.95668 13.1562 1.54409 12.4826 C 1.21881 11.9161 0.754279 11.4108 0.597344 10.7641 C 0.446116 9.99517 0.433562 9.1599 0.788804 8.44149 C 1.23421 7.5094 2.25172 6.99988 2.67316 6.0517 C 2.90114 5.55968 2.92026 5.00839 2.88802 4.4777 C 3.99255 3.20179 5.53679 2.27082 7.2137 1.96455 C 8.35847 1.74493 9.51693 1.98403 10.6651 2.03963 C 12.9726 2.18783 15.2219 1.40366 17.5286 1.51346 C 18.59 1.5829 19.6264 1.88579 20.5862 2.33377 C 21.6454 2.82579 22.601 3.50157 23.5885 4.11581 C 23.9047 4.30212 24.2151 4.50593 24.5601 4.63973 C 23.5226 3.82958 22.4569 3.0375 21.2919 2.41338 C 20.0684 1.76356 18.701 1.36385 17.3094 1.32208 C 15.0034 1.24981 12.7464 1.91091 10.4403 1.87055 C 9.91783 1.85389 9.39053 1.8251 8.88149 1.70372 Z" stroke-linecap="round" />
</g>
		<g transform="matrix(1 0 0 1 -1.09 -9.97)"  >
<path style="stroke: none; stroke-width: 1; stroke-dasharray: none; stroke-linecap: butt; stroke-dashoffset: 0; stroke-linejoin: miter; stroke-miterlimit: 4; fill: rgb(13,13,13); fill-rule: nonzero; opacity: 1;" vector-effect="non-scaling-stroke"  transform=" translate(-14.91, -3.53)" d="M 14.596 2.13979 C 16.4485 1.89895 18.3776 1.99362 20.1487 2.58743 C 21.2308 2.9487 22.2421 3.50415 23.0848 4.23689 C 23.358 4.48954 23.647 4.73522 23.8526 5.04204 C 22.4021 3.82332 20.6751 2.84786 18.7569 2.44743 C 17.5943 2.19344 16.3877 2.14677 15.2001 2.24761 C 14.2737 2.34041 13.3943 2.68371 12.4585 2.7167 C 10.741 2.82291 9.02266 2.6467 7.31895 2.45172 C 7.1515 2.43643 6.98492 2.40639 6.8169 2.41256 C 6.52186 2.55122 6.29706 2.80441 5.96332 2.87307 C 6.18496 2.52494 6.58264 2.29723 7.00986 2.24976 C 7.86143 2.15642 8.6872 2.4249 9.52529 2.50992 C 11.2261 2.65126 12.9187 2.3734 14.596 2.13979 Z" stroke-linecap="round" />
</g>
		<g transform="matrix(1 0 0 1 2.88 -9.21)"  >
<path style="stroke: none; stroke-width: 1; stroke-dasharray: none; stroke-linecap: butt; stroke-dashoffset: 0; stroke-linejoin: miter; stroke-miterlimit: 4; fill: rgb(13,13,13); fill-rule: nonzero; opacity: 1;" vector-effect="non-scaling-stroke"  transform=" translate(-18.88, -4.29)" d="M 15.9045 3.10192 C 17.5285 2.91468 19.2254 3.04581 20.7371 3.76715 C 21.4381 4.11912 22.1621 4.67662 22.3617 5.54619 C 21.8557 4.553 20.8924 3.98169 19.9339 3.66573 C 18.4695 3.19103 16.9194 3.12442 15.4047 3.20724 C 15.5657 3.14572 15.7348 3.11572 15.9045 3.10192 Z" stroke-linecap="round" />
</g>
		<g transform="matrix(1 0 0 1 -7.3 -8.96)"  >
<path style="stroke: none; stroke-width: 1; stroke-dasharray: none; stroke-linecap: butt; stroke-dashoffset: 0; stroke-linejoin: miter; stroke-miterlimit: 4; fill: rgb(13,13,13); fill-rule: nonzero; opacity: 1;" vector-effect="non-scaling-stroke"  transform=" translate(-8.7, -4.54)" d="M 7.23467 3.83901 C 8.36139 3.46278 9.58744 3.44578 10.7414 3.69958 C 10.9533 3.74683 11.1889 3.74827 11.3726 3.87963 C 11.4959 3.94733 11.3842 4.08388 11.3588 4.17462 C 10.3303 3.75633 9.19264 3.61258 8.09856 3.78946 C 7.43784 3.91132 6.7608 4.1945 6.34377 4.75625 C 6.16283 4.99017 6.07644 5.27624 5.96332 5.54617 C 5.98499 5.1273 6.13694 4.7335 6.31985 4.36389 C 6.56044 4.09627 6.90628 3.95914 7.23467 3.83901 Z" stroke-linecap="round" />
</g>
		<g transform="matrix(1 0 0 1 -0.6 -8.96)"  >
<path style="stroke: none; stroke-width: 1; stroke-dasharray: none; stroke-linecap: butt; stroke-dashoffset: 0; stroke-linejoin: miter; stroke-miterlimit: 4; fill: rgb(13,13,13); fill-rule: nonzero; opacity: 1;" vector-effect="non-scaling-stroke"  transform=" translate(-15.4, -4.54)" d="M 15.5458 3.5867 C 15.6591 3.46199 15.7874 3.57111 15.9015 3.62901 C 15.5255 3.86826 15.2442 4.26817 15.099 4.72598 C 15.0782 4.99895 15.1148 5.27988 15.0393 5.54617 C 14.871 5.20479 14.9015 4.79693 14.9302 4.42311 C 15.1689 4.17559 15.2975 3.82213 15.5458 3.5867 Z" stroke-linecap="round" />
</g>
		<g transform="matrix(1 0 0 1 -5.32 -7.95)"  >
<path style="stroke: none; stroke-width: 1; stroke-dasharray: none; stroke-linecap: butt; stroke-dashoffset: 0; stroke-linejoin: miter; stroke-miterlimit: 4; fill: rgb(13,13,13); fill-rule: nonzero; opacity: 1;" vector-effect="non-scaling-stroke"  transform=" translate(-10.68, -5.55)" d="M 10.4355 4.61206 C 10.5068 4.5856 10.5783 4.56145 10.6507 4.53787 C 10.7255 4.73886 10.8134 4.93238 10.933 5.09513 C 10.9279 5.58164 10.9381 6.06816 10.9279 6.55468 C 10.6275 6.20446 10.9115 5.64922 10.8055 5.21589 C 10.6906 5.00513 10.5232 4.84842 10.4355 4.61206 Z" stroke-linecap="round" />
</g>
		<g transform="matrix(1 0 0 1 2.39 -6.69)"  >
<path style="stroke: none; stroke-width: 1; stroke-dasharray: none; stroke-linecap: butt; stroke-dashoffset: 0; stroke-linejoin: miter; stroke-miterlimit: 4; fill: rgb(13,13,13); fill-rule: nonzero; opacity: 1;" vector-effect="non-scaling-stroke"  transform=" translate(-18.39, -6.81)" d="M 17.2987 5.18243 C 18.4833 4.94862 19.7559 4.97446 20.8733 5.50914 C 21.5859 5.84478 22.2002 6.50775 22.3614 7.35624 C 22.1706 7.5199 21.9518 7.66634 21.7016 7.6728 C 21.1291 7.7011 20.5995 7.39869 20.0334 7.35685 C 18.4652 7.21903 16.9159 7.7571 15.5543 8.57143 C 15.2073 8.18626 14.6204 8.04997 14.4484 7.49714 C 14.316 7.15135 14.5597 6.83724 14.7432 6.58036 C 15.3922 5.77772 16.3608 5.39439 17.2987 5.18243 Z" stroke-linecap="round" />
</g>
		<g transform="matrix(1 0 0 1 0.65 -6.69)"  >
<path style="stroke: none; stroke-width: 1; stroke-dasharray: none; stroke-linecap: butt; stroke-dashoffset: 0; stroke-linejoin: miter; stroke-miterlimit: 4; fill: rgb(252,252,252); fill-rule: nonzero; opacity: 1;" vector-effect="non-scaling-stroke"  transform=" translate(-16.65, -6.81)" d="M 15.9126 6.70453 C 16.4641 6.38421 17.0993 6.23557 17.7094 6.05038 C 17.6322 6.36044 17.8434 6.6232 17.8893 6.91849 C 17.4697 6.87294 17.0525 6.9808 16.6939 7.1845 C 16.3076 7.39195 15.8748 7.68399 15.41 7.50982 C 15.3648 7.16123 15.6151 6.87169 15.9126 6.70453 Z" stroke-linecap="round" />
</g>
		<g transform="matrix(1 0 0 1 -6.81 -3.67)"  >
<path style="stroke: none; stroke-width: 1; stroke-dasharray: none; stroke-linecap: butt; stroke-dashoffset: 0; stroke-linejoin: miter; stroke-miterlimit: 4; fill: rgb(13,13,13); fill-rule: nonzero; opacity: 1;" vector-effect="non-scaling-stroke"  transform=" translate(-9.19, -9.83)" d="M 7.13344 6.1574 C 8.01701 5.93161 8.95293 6.08815 9.80047 6.39366 C 10.3719 6.61916 10.9686 6.91187 11.3101 7.46237 C 11.6675 7.3553 12.0717 7.19439 12.4233 7.41174 C 12.4163 7.55693 12.4213 7.72918 12.3037 7.83189 C 12.0233 8.11937 11.5549 8.08067 11.3036 8.41353 C 11.3027 8.93494 11.3058 9.45634 11.3013 9.97775 C 10.8648 10.48 10.0403 10.5783 9.83369 11.2897 C 10.183 11.9153 10.6148 12.5886 11.3123 12.8269 C 11.5932 12.8493 11.7742 12.5819 12.0118 12.4739 C 12.0985 12.5269 12.1849 12.5813 12.2708 12.6363 C 12.1345 12.9843 11.9673 13.3588 11.6385 13.5525 C 11.4232 13.6747 11.1688 13.595 10.9737 13.4705 C 10.2925 13.0297 9.89702 12.2563 9.22315 11.8065 C 9.08776 11.9592 8.93576 12.1678 8.7117 12.1463 C 8.59855 11.9927 8.55379 11.8006 8.47244 11.6293 C 7.83967 11.7916 7.32372 12.4411 6.62902 12.3235 C 8.16112 11.6904 9.3608 10.491 10.6551 9.47438 C 10.6551 9.07431 10.6551 8.67365 10.6551 8.27299 C 10.0476 7.89736 9.32561 7.82375 8.63514 7.75362 C 7.73806 7.65993 6.80635 7.65761 5.96332 7.28605 C 6.08661 6.70208 6.58877 6.2892 7.13344 6.1574 Z" stroke-linecap="round" />
</g>
		<g transform="matrix(1 0 0 1 5.12 -6.69)"  >
<path style="stroke: none; stroke-width: 1; stroke-dasharray: none; stroke-linecap: butt; stroke-dashoffset: 0; stroke-linejoin: miter; stroke-miterlimit: 4; fill: rgb(252,252,252); fill-rule: nonzero; opacity: 1;" vector-effect="non-scaling-stroke"  transform=" translate(-21.12, -6.81)" d="M 20.871 6.57431 C 21.0282 6.52491 21.2033 6.56176 21.3233 6.76762 C 21.3764 6.83463 21.3681 6.95772 21.3681 7.05891 C 21.2546 6.88109 21.1069 6.88803 20.9667 6.85225 C 20.8885 6.83864 20.887 6.67871 20.871 6.57431 Z" stroke-linecap="round" />
</g>
		<g transform="matrix(1 0 0 1 -8.3 -6.69)"  >
<path style="stroke: none; stroke-width: 1; stroke-dasharray: none; stroke-linecap: butt; stroke-dashoffset: 0; stroke-linejoin: miter; stroke-miterlimit: 4; fill: rgb(252,252,252); fill-rule: nonzero; opacity: 1;" vector-effect="non-scaling-stroke"  transform=" translate(-7.7, -6.81)" d="M 6.95679 6.66534 C 7.30672 6.70824 7.65335 6.55838 8.00328 6.55536 C 8.17164 6.54327 8.3279 6.70401 8.44757 6.95782 C 8.15541 6.93908 7.86463 6.98562 7.57384 7.04605 C 7.35679 7.08291 7.10754 7.06417 6.95679 6.66534 Z" stroke-linecap="round" />
</g>
		<g transform="matrix(1 0 0 1 7.6 -6.44)"  >
<path style="stroke: none; stroke-width: 1; stroke-dasharray: none; stroke-linecap: butt; stroke-dashoffset: 0; stroke-linejoin: miter; stroke-miterlimit: 4; fill: rgb(13,13,13); fill-rule: nonzero; opacity: 1;" vector-effect="non-scaling-stroke"  transform=" translate(-23.6, -7.06)" d="M 22.8586 6.56548 C 23.3718 6.4737 23.8314 7.00408 24.3493 6.83616 C 24.2635 7.59959 23.5238 7.77046 23.1705 7.30733 C 23.4059 7.25319 23.7218 7.41349 23.8701 7.05272 C 23.515 7.01169 23.129 6.95417 22.8586 6.56548 Z" stroke-linecap="round" />
</g>
		<g transform="matrix(1 0 0 1 -12.77 -3.67)"  >
<path style="stroke: none; stroke-width: 1; stroke-dasharray: none; stroke-linecap: butt; stroke-dashoffset: 0; stroke-linejoin: miter; stroke-miterlimit: 4; fill: rgb(13,13,13); fill-rule: nonzero; opacity: 1;" vector-effect="non-scaling-stroke"  transform=" translate(-3.23, -9.83)" d="M 3.23707 7.18763 C 3.72021 7.27031 4.20175 7.1553 4.67794 7.07633 C 4.95906 7.02197 5.2669 7.09092 5.46652 7.3201 C 4.60739 7.19936 3.71059 7.21452 2.89449 7.55814 C 2.21174 7.82909 1.59044 8.377 1.33604 9.12348 C 1.10356 9.78125 1.1725 10.5151 1.37158 11.1721 C 1.41808 11.3097 1.45042 11.4716 1.56933 11.5612 C 1.97845 11.8922 2.53855 11.8942 2.94633 12.2232 C 3.06952 12.3102 3.03665 12.4699 3.03184 12.6049 C 2.84505 12.4759 2.66949 12.3251 2.46132 12.237 C 2.06877 12.0539 1.61583 11.966 1.30264 11.6307 C 1.00095 10.9194 0.90715 10.0925 1.08085 9.32919 C 1.3005 8.33895 2.03109 7.52438 2.91293 7.17132 C 3.01822 7.12983 3.12965 7.18162 3.23707 7.18763 Z" stroke-linecap="round" />
</g>
		<g transform="matrix(1 0 0 1 11.83 -4.68)"  >
<path style="stroke: none; stroke-width: 1; stroke-dasharray: none; stroke-linecap: butt; stroke-dashoffset: 0; stroke-linejoin: miter; stroke-miterlimit: 4; fill: rgb(13,13,13); fill-rule: nonzero; opacity: 1;" vector-effect="non-scaling-stroke"  transform=" translate(-27.83, -8.82)" d="M 25.8402 7.14468 C 26.2175 7.02723 26.6211 7.06852 27.0119 7.05887 C 27.7429 7.05324 28.5221 7.21735 29.0739 7.71023 C 29.5711 8.16691 29.7639 8.84374 29.8035 9.48759 C 29.839 9.85497 29.7866 10.2215 29.7758 10.5881 C 29.7348 10.5433 29.6936 10.4988 29.6526 10.4548 C 29.7113 9.88447 29.6958 9.30766 29.6357 8.73862 C 29.3952 8.17173 28.9526 7.65392 28.3498 7.42947 C 27.5515 7.12001 26.6757 7.23452 25.8402 7.14468 Z" stroke-linecap="round" />
</g>
		<g transform="matrix(1 0 0 1 7.11 -5.68)"  >
<path style="stroke: none; stroke-width: 1; stroke-dasharray: none; stroke-linecap: butt; stroke-dashoffset: 0; stroke-linejoin: miter; stroke-miterlimit: 4; fill: rgb(13,13,13); fill-rule: nonzero; opacity: 1;" vector-effect="non-scaling-stroke"  transform=" translate(-23.11, -7.82)" d="M 22.8586 7.62763 C 23.0526 7.42757 23.2664 7.72572 23.3561 8.0666 C 23.1627 8.0802 22.9919 7.88645 22.8586 7.62763 Z" stroke-linecap="round" />
</g>
		<g transform="matrix(1 0 0 1 7.85 -3.42)"  >
<path style="stroke: none; stroke-width: 1; stroke-dasharray: none; stroke-linecap: butt; stroke-dashoffset: 0; stroke-linejoin: miter; stroke-miterlimit: 4; fill: rgb(13,13,13); fill-rule: nonzero; opacity: 1;" vector-effect="non-scaling-stroke"  transform=" translate(-23.85, -10.08)" d="M 24.8413 7.64467 C 25.792 7.44344 26.8358 7.60868 27.6354 8.20369 C 28.3606 8.73182 28.866 9.62853 28.8189 10.5684 C 28.8049 11.3698 28.3704 12.0991 27.7963 12.6051 C 27.5694 12.0853 27.8697 11.5701 28.0354 11.0888 C 28.2491 10.5414 28.1309 9.91734 27.8763 9.409 C 27.6251 8.89527 27.145 8.53059 26.6179 8.38093 C 26.1487 8.22888 25.6517 8.24898 25.1679 8.27957 C 24.6761 8.77801 24.0191 9.04282 23.3684 9.22636 C 22.5146 9.45129 21.6176 9.52027 20.7461 9.38201 C 20.1596 9.27615 19.5393 9.05572 19.1639 8.54378 C 18.9606 8.27897 18.8952 7.93498 18.8834 7.60329 C 19.6448 7.71995 20.0882 8.4916 20.8026 8.72732 C 21.4524 8.94235 22.1725 8.86858 22.7994 8.60376 C 23.492 8.31196 24.0959 7.79672 24.8413 7.64467 Z" stroke-linecap="round" />
</g>
		<g transform="matrix(1 0 0 1 -13.27 -4.17)"  >
<path style="stroke: none; stroke-width: 1; stroke-dasharray: none; stroke-linecap: butt; stroke-dashoffset: 0; stroke-linejoin: miter; stroke-miterlimit: 4; fill: rgb(13,13,13); fill-rule: nonzero; opacity: 1;" vector-effect="non-scaling-stroke"  transform=" translate(-2.73, -9.33)" d="M 2.11175 8.73501 C 2.50314 8.40282 2.99957 8.23495 3.47835 8.06708 C 3.23238 8.58074 2.47352 8.51187 2.27034 9.06041 C 2.10726 9.55308 2.30655 10.093 2.12551 10.5881 C 2.07973 10.5222 2.03454 10.4572 1.98756 10.3921 C 1.99624 9.83739 2.08422 9.28827 2.11175 8.73501 Z" stroke-linecap="round" />
</g>
		<g transform="matrix(1 0 0 1 -10.78 -4.17)"  >
<path style="stroke: none; stroke-width: 1; stroke-dasharray: none; stroke-linecap: butt; stroke-dashoffset: 0; stroke-linejoin: miter; stroke-miterlimit: 4; fill: rgb(13,13,13); fill-rule: nonzero; opacity: 1;" vector-effect="non-scaling-stroke"  transform=" translate(-5.22, -9.33)" d="M 3.14159 8.72885 C 3.77221 8.46495 4.5023 8.57709 5.14654 8.74335 C 5.73453 8.90521 6.30919 9.14062 6.76454 9.51121 C 7.02241 9.38923 7.23972 9.20536 7.51358 9.10799 C 7.67346 9.06551 7.82208 9.12922 7.95087 9.20536 C 7.93399 9.48195 7.81971 9.77951 7.51565 9.909 C 6.9102 10.1641 6.21593 10.0569 5.56725 10.0833 C 5.54445 9.74455 5.3526 9.37059 4.94492 9.28046 C 4.11416 9.09866 3.30709 9.45864 2.48462 9.50785 C 2.57314 9.1849 2.78335 8.86999 3.14159 8.72885 Z" stroke-linecap="round" />
</g>
		<g transform="matrix(1 0 0 1 -0.6 1.12)"  >
<path style="stroke: none; stroke-width: 1; stroke-dasharray: none; stroke-linecap: butt; stroke-dashoffset: 0; stroke-linejoin: miter; stroke-miterlimit: 4; fill: rgb(13,13,13); fill-rule: nonzero; opacity: 1;" vector-effect="non-scaling-stroke"  transform=" translate(-15.4, -14.62)" d="M 24.9783 9.20534 C 25.0695 9.08329 25.2334 9.09459 25.3686 9.07558 C 25.3827 9.41196 25.4256 9.76872 25.6387 10.0453 C 26.0728 10.6357 26.894 10.7655 27.3312 11.3537 C 26.9766 11.676 26.4979 11.4247 26.0879 11.3994 C 25.8684 11.3605 25.8067 11.6223 25.7163 11.7661 C 25.578 11.9898 25.5644 12.2584 25.667 12.4983 C 25.7552 12.6463 25.5516 12.7099 25.4812 12.805 C 24.7249 13.5626 24.2165 14.5147 23.5806 15.3651 C 23.0808 16.055 22.4997 16.6925 21.8196 17.2115 C 20.6547 18.1022 19.3602 18.8314 17.9817 19.3436 C 16.6835 19.8331 15.2891 19.9761 13.9142 20.0855 C 12.3285 20.1913 10.7355 20.199 9.14977 20.0869 C 8.04327 19.9968 6.92899 19.8717 5.86562 19.5425 C 5.43337 19.4006 4.98221 19.2337 4.67457 18.8852 C 4.21729 18.3766 3.97084 17.7237 3.79505 17.0754 C 3.44263 15.6748 3.39701 14.2042 3.59701 12.7782 C 3.68963 12.1041 4.02369 11.501 4.34329 10.9107 C 4.49794 10.6646 4.41589 10.3599 4.51129 10.0982 C 4.56776 9.9467 4.75635 10.0318 4.87539 10.0205 C 5.16022 10.6222 4.98916 11.314 5.19638 11.9325 C 6.3051 13.0256 7.85942 13.5576 9.3862 13.7485 C 11.5936 14.0053 13.8216 13.6675 15.9665 13.1521 C 19.0462 12.3881 22.0076 11.2195 24.8787 9.89022 C 24.8851 9.66156 24.839 9.40479 24.9783 9.20534 Z" stroke-linecap="round" />
</g>
		<g transform="matrix(1 0 0 1 -0.1 -2.16)"  >
<path style="stroke: none; stroke-width: 1; stroke-dasharray: none; stroke-linecap: butt; stroke-dashoffset: 0; stroke-linejoin: miter; stroke-miterlimit: 4; fill: rgb(13,13,13); fill-rule: nonzero; opacity: 1;" vector-effect="non-scaling-stroke"  transform=" translate(-15.9, -11.34)" d="M 14.9077 10.6489 C 14.927 10.2254 15.3375 10.0444 15.6649 10.0911 C 16.0779 10.145 16.5278 10.2668 16.8281 10.612 C 16.9241 10.8809 16.8907 11.188 16.8855 11.4725 C 16.8461 11.887 16.7218 12.3856 16.3487 12.5642 C 16.1722 12.661 15.9824 12.5621 15.8093 12.5064 C 15.8093 12.3765 15.7847 12.2383 15.8388 12.1175 C 15.9403 11.8705 16.215 11.7752 16.2933 11.5115 C 16.3547 11.3276 16.2986 11.1346 16.2685 10.9513 C 15.8301 10.7616 15.3361 10.8757 14.9077 10.6489 Z" stroke-linecap="round" />
</g>
		<g transform="matrix(1 0 0 1 2.39 -2.91)"  >
<path style="stroke: none; stroke-width: 1; stroke-dasharray: none; stroke-linecap: butt; stroke-dashoffset: 0; stroke-linejoin: miter; stroke-miterlimit: 4; fill: rgb(13,13,13); fill-rule: nonzero; opacity: 1;" vector-effect="non-scaling-stroke"  transform=" translate(-18.39, -10.59)" d="M 16.9468 10.5762 C 16.8871 10.4092 16.8364 10.1606 17.0531 10.0839 C 17.1102 10.0997 17.2228 10.1297 17.2793 10.1458 C 17.2034 10.2011 17.1274 10.2555 17.0512 10.3103 C 17.0662 10.5113 17.2196 10.6776 17.4223 10.7197 C 18.1638 10.8978 18.9357 10.6603 19.6808 10.7914 C 19.8442 10.806 19.8965 10.9507 19.8703 11.0923 C 19.1833 10.7219 18.3811 11.0172 17.6443 10.9492 C 17.3779 10.9325 17.0416 10.8533 16.9468 10.5762 Z" stroke-linecap="round" />
</g>
		<g transform="matrix(1 0 0 1 -13.52 -2.66)"  >
<path style="stroke: none; stroke-width: 1; stroke-dasharray: none; stroke-linecap: butt; stroke-dashoffset: 0; stroke-linejoin: miter; stroke-miterlimit: 4; fill: rgb(13,13,13); fill-rule: nonzero; opacity: 1;" vector-effect="non-scaling-stroke"  transform=" translate(-2.48, -10.84)" d="M 1.98756 10.5883 C 2.02157 10.5998 2.09067 10.6232 2.12522 10.6351 C 2.30822 10.8367 2.70905 10.9325 2.98139 11.0925 C 2.7409 11.0767 2.48313 11.0529 2.29986 10.9597 C 2.10039 10.867 2.03264 10.722 1.98756 10.5883 Z" stroke-linecap="round" />
</g>
		<g transform="matrix(1 0 0 1 7.85 -1.65)"  >
<path style="stroke: none; stroke-width: 1; stroke-dasharray: none; stroke-linecap: butt; stroke-dashoffset: 0; stroke-linejoin: miter; stroke-miterlimit: 4; fill: rgb(252,252,252); fill-rule: nonzero; opacity: 1;" vector-effect="non-scaling-stroke"  transform=" translate(-23.85, -11.85)" d="M 22.4212 11.8642 C 23.4301 11.5224 24.2384 10.6353 25.3429 10.5883 C 25.3601 11.198 25.0825 11.792 24.6315 12.1866 C 24.0033 12.7463 23.1737 12.9943 22.3622 13.1092 C 22.5608 12.7162 22.3587 12.2791 22.4212 11.8642 Z" stroke-linecap="round" />
</g>
		<g transform="matrix(1 0 0 1 12.57 -1.65)"  >
<path style="stroke: none; stroke-width: 1; stroke-dasharray: none; stroke-linecap: butt; stroke-dashoffset: 0; stroke-linejoin: miter; stroke-miterlimit: 4; fill: rgb(13,13,13); fill-rule: nonzero; opacity: 1;" vector-effect="non-scaling-stroke"  transform=" translate(-28.57, -11.85)" d="M 29.6672 10.5883 C 29.7168 10.6447 29.7661 10.7019 29.8153 10.7583 C 29.722 11.2938 29.6083 11.8269 29.4523 12.3517 C 28.9178 12.6222 28.4198 12.9794 27.7991 13.0931 C 27.6404 13.1351 27.4826 13.0863 27.3307 13.0487 C 27.9269 12.9659 28.5334 12.7688 28.9274 12.3614 C 29.4072 11.8674 29.6152 11.2186 29.6672 10.5883 Z" stroke-linecap="round" />
</g>
		<g transform="matrix(1 0 0 1 -1.84 -1.9)"  >
<path style="stroke: none; stroke-width: 1; stroke-dasharray: none; stroke-linecap: butt; stroke-dashoffset: 0; stroke-linejoin: miter; stroke-miterlimit: 4; fill: rgb(13,13,13); fill-rule: nonzero; opacity: 1;" vector-effect="non-scaling-stroke"  transform=" translate(-14.16, -11.6)" d="M 13.5146 11.188 C 14.1331 11.0169 14.7935 11.0916 15.398 11.2852 C 15.4186 11.5661 15.3974 11.8555 15.2492 12.1008 C 14.5837 11.4923 13.665 12.1546 12.9201 11.7957 C 12.9582 11.4809 13.2268 11.2613 13.5146 11.188 Z" stroke-linecap="round" />
</g>
		<g transform="matrix(1 0 0 1 3.63 -0.14)"  >
<path style="stroke: none; stroke-width: 1; stroke-dasharray: none; stroke-linecap: butt; stroke-dashoffset: 0; stroke-linejoin: miter; stroke-miterlimit: 4; fill: rgb(252,252,252); fill-rule: nonzero; opacity: 1;" vector-effect="non-scaling-stroke"  transform=" translate(-19.63, -13.36)" d="M 17.3929 13.2141 C 18.8925 12.8722 20.3506 12.3946 21.8652 12.1008 C 21.8558 12.6803 21.5415 13.256 20.9792 13.5654 C 19.9922 14.1219 18.7788 14.181 17.7335 14.6218 C 17.6016 14.156 17.5345 13.6776 17.3929 13.2141 Z" stroke-linecap="round" />
</g>
		<g transform="matrix(1 0 0 1 -11.03 0.37)"  >
<path style="stroke: none; stroke-width: 1; stroke-dasharray: none; stroke-linecap: butt; stroke-dashoffset: 0; stroke-linejoin: miter; stroke-miterlimit: 4; fill: rgb(252,252,252); fill-rule: nonzero; opacity: 1;" vector-effect="non-scaling-stroke"  transform=" translate(-4.97, -13.87)" d="M 4.47351 14.3966 C 4.48649 13.7373 4.90427 13.1356 5.35136 12.6051 C 5.62221 13.4399 5.36308 14.3138 5.09182 15.1261 C 4.73934 14.997 4.45007 14.7292 4.47351 14.3966 Z" stroke-linecap="round" />
</g>
		<g transform="matrix(1 0 0 1 7.36 1.12)"  >
<path style="stroke: none; stroke-width: 1; stroke-dasharray: none; stroke-linecap: butt; stroke-dashoffset: 0; stroke-linejoin: miter; stroke-miterlimit: 4; fill: rgb(252,252,252); fill-rule: nonzero; opacity: 1;" vector-effect="non-scaling-stroke"  transform=" translate(-23.36, -14.62)" d="M 23.1424 13.9773 C 23.5112 13.7671 23.9271 13.6436 24.3498 13.6134 C 23.6362 14.1948 23.4651 15.3153 22.5203 15.6302 C 22.412 15.3912 22.321 15.128 22.3816 14.8626 C 22.4686 14.4624 22.7994 14.1709 23.1424 13.9773 Z" stroke-linecap="round" />
</g>
		<g transform="matrix(1 0 0 1 -9.29 1.12)"  >
<path style="stroke: none; stroke-width: 1; stroke-dasharray: none; stroke-linecap: butt; stroke-dashoffset: 0; stroke-linejoin: miter; stroke-miterlimit: 4; fill: rgb(252,252,252); fill-rule: nonzero; opacity: 1;" vector-effect="non-scaling-stroke"  transform=" translate(-6.71, -14.62)" d="M 6.15058 15.4243 C 6.06815 14.8386 5.70174 14.0742 6.29597 13.6134 C 6.60818 13.8975 7.02716 14.0382 7.44906 14.131 C 7.49547 14.4934 7.20403 14.7781 7.08752 15.104 C 7.02034 15.2865 7.1216 15.4664 7.20079 15.6302 C 6.86164 15.5226 6.52347 15.3474 6.15058 15.4243 Z" stroke-linecap="round" />
</g>
		<g transform="matrix(1 0 0 1 -0.35 1.12)"  >
<path style="stroke: none; stroke-width: 1; stroke-dasharray: none; stroke-linecap: butt; stroke-dashoffset: 0; stroke-linejoin: miter; stroke-miterlimit: 4; fill: rgb(252,252,252); fill-rule: nonzero; opacity: 1;" vector-effect="non-scaling-stroke"  transform=" translate(-15.65, -14.62)" d="M 14.2076 14.2131 C 15.1595 13.9876 16.1132 13.766 17.0795 13.6134 C 17.2167 14.1007 17.2633 14.6094 17.3927 15.098 C 16.651 15.182 15.9479 15.4676 15.2111 15.5777 C 14.7823 15.6463 14.3466 15.6396 13.9156 15.6039 C 13.92 15.171 13.9079 14.739 13.9192 14.3066 C 13.9998 14.2422 14.1126 14.2442 14.2076 14.2131 Z" stroke-linecap="round" />
</g>
		<g transform="matrix(1 0 0 1 -7.06 1.37)"  >
<path style="stroke: none; stroke-width: 1; stroke-dasharray: none; stroke-linecap: butt; stroke-dashoffset: 0; stroke-linejoin: miter; stroke-miterlimit: 4; fill: rgb(252,252,252); fill-rule: nonzero; opacity: 1;" vector-effect="non-scaling-stroke"  transform=" translate(-8.94, -14.87)" d="M 7.45384 15.309 C 7.80992 14.9885 7.59895 14.4604 7.91175 14.1176 C 8.68818 14.5187 9.61991 14.2837 10.4355 14.5625 C 10.1494 14.8627 10.3785 15.275 10.3327 15.6302 C 9.36757 15.6281 8.36393 15.656 7.45384 15.309 Z" stroke-linecap="round" />
</g>
		<g transform="matrix(1 0 0 1 -4.07 1.37)"  >
<path style="stroke: none; stroke-width: 1; stroke-dasharray: none; stroke-linecap: butt; stroke-dashoffset: 0; stroke-linejoin: miter; stroke-miterlimit: 4; fill: rgb(252,252,252); fill-rule: nonzero; opacity: 1;" vector-effect="non-scaling-stroke"  transform=" translate(-11.93, -14.87)" d="M 11.1224 14.3397 C 11.731 14.4524 12.3135 14.1193 12.9183 14.1176 C 12.9214 14.6208 12.919 15.125 12.9202 15.6282 C 12.2628 15.6299 11.6061 15.6322 10.949 15.6272 C 10.8627 15.166 11.1455 14.7945 11.1224 14.3397 Z" stroke-linecap="round" />
</g>
		<g transform="matrix(1 0 0 1 4.13 2.89)"  >
<path style="stroke: none; stroke-width: 1; stroke-dasharray: none; stroke-linecap: butt; stroke-dashoffset: 0; stroke-linejoin: miter; stroke-miterlimit: 4; fill: rgb(252,252,252); fill-rule: nonzero; opacity: 1;" vector-effect="non-scaling-stroke"  transform=" translate(-20.13, -16.39)" d="M 18.4042 15.9122 C 19.4602 15.6378 20.454 15.1532 21.4157 14.6218 C 21.328 15.1952 21.4513 15.8169 21.8648 16.2177 C 20.8918 16.8199 20.052 17.6517 19.0224 18.1512 C 19.0097 17.4957 18.4587 17.0495 18.3981 16.4103 C 18.3744 16.2442 18.392 16.0775 18.4042 15.9122 Z" stroke-linecap="round" />
</g>
		<g transform="matrix(1 0 0 1 0.4 4.15)"  >
<path style="stroke: none; stroke-width: 1; stroke-dasharray: none; stroke-linecap: butt; stroke-dashoffset: 0; stroke-linejoin: miter; stroke-miterlimit: 4; fill: rgb(252,252,252); fill-rule: nonzero; opacity: 1;" vector-effect="non-scaling-stroke"  transform=" translate(-16.4, -17.65)" d="M 14.4379 17.0591 C 15.5721 16.9233 16.6425 16.5234 17.7012 16.1343 C 17.6727 16.4942 17.6647 16.8728 17.8404 17.2037 C 18.0437 17.6031 18.3269 17.9771 18.3861 18.4289 C 17.3917 18.6601 16.437 19.0576 15.4095 19.1468 C 15.0956 19.1819 14.7795 19.1398 14.4737 19.0749 C 14.5994 18.4054 14.3267 17.7326 14.4379 17.0591 Z" stroke-linecap="round" />
</g>
		<g transform="matrix(1 0 0 1 -11.28 3.89)"  >
<path style="stroke: none; stroke-width: 1; stroke-dasharray: none; stroke-linecap: butt; stroke-dashoffset: 0; stroke-linejoin: miter; stroke-miterlimit: 4; fill: rgb(252,252,252); fill-rule: nonzero; opacity: 1;" vector-effect="non-scaling-stroke"  transform=" translate(-4.72, -17.39)" d="M 4.51166 17.0437 C 4.46023 16.9172 4.46764 16.7736 4.48594 16.6386 C 4.60645 16.9915 4.81499 17.2842 4.93507 17.6373 C 4.9987 17.8036 4.96579 17.9905 4.9087 18.1512 C 4.84136 17.7481 4.64502 17.4124 4.51166 17.0437 Z" stroke-linecap="round" />
</g>
		<g transform="matrix(1 0 0 1 -9.79 4.65)"  >
<path style="stroke: none; stroke-width: 1; stroke-dasharray: none; stroke-linecap: butt; stroke-dashoffset: 0; stroke-linejoin: miter; stroke-miterlimit: 4; fill: rgb(252,252,252); fill-rule: nonzero; opacity: 1;" vector-effect="non-scaling-stroke"  transform=" translate(-6.21, -18.15)" d="M 5.88564 17.143 C 6.43889 17.6754 6.72926 18.4264 6.95698 19.1598 C 6.52661 19.0434 6.07362 18.9908 5.67138 18.7841 C 5.55095 18.7306 5.51335 18.5927 5.46628 18.4796 C 5.53199 18.5402 5.59618 18.6017 5.66037 18.6652 C 5.79822 18.6248 5.95931 18.6091 6.05712 18.4844 C 6.21514 18.0103 5.59557 17.5959 5.88564 17.143 Z" stroke-linecap="round" />
</g>
		<g transform="matrix(1 0 0 1 -3.58 4.9)"  >
<path style="stroke: none; stroke-width: 1; stroke-dasharray: none; stroke-linecap: butt; stroke-dashoffset: 0; stroke-linejoin: miter; stroke-miterlimit: 4; fill: rgb(252,252,252); fill-rule: nonzero; opacity: 1;" vector-effect="non-scaling-stroke"  transform=" translate(-12.42, -18.4)" d="M 10.9326 17.5062 C 11.892 17.5918 12.8551 17.4281 13.7718 17.143 C 13.82 17.9213 13.5928 18.7477 13.914 19.4867 C 13.0656 19.7759 12.1603 19.6179 11.2847 19.6437 C 11.1978 18.9258 11.0275 18.2224 10.9326 17.5062 Z" stroke-linecap="round" />
</g>
		<g transform="matrix(1 0 0 1 -8.3 4.9)"  >
<path style="stroke: none; stroke-width: 1; stroke-dasharray: none; stroke-linecap: butt; stroke-dashoffset: 0; stroke-linejoin: miter; stroke-miterlimit: 4; fill: rgb(252,252,252); fill-rule: nonzero; opacity: 1;" vector-effect="non-scaling-stroke"  transform=" translate(-7.7, -18.4)" d="M 6.95679 17.6485 C 7.32038 17.6252 7.62181 17.882 7.99087 17.8289 C 7.97214 18.3164 8.3529 18.6972 8.44757 19.1596 C 8.10322 19.1136 7.73781 19.0995 7.4382 18.9179 C 7.47747 18.8038 7.54665 18.68 7.48345 18.5609 C 7.36147 18.2318 7.0707 17.9822 6.95679 17.6485 Z" stroke-linecap="round" />
</g>
		<g transform="matrix(1 0 0 1 -6.06 5.16)"  >
<path style="stroke: none; stroke-width: 1; stroke-dasharray: none; stroke-linecap: butt; stroke-dashoffset: 0; stroke-linejoin: miter; stroke-miterlimit: 4; fill: rgb(252,252,252); fill-rule: nonzero; opacity: 1;" vector-effect="non-scaling-stroke"  transform=" translate(-9.94, -18.66)" d="M 8.94499 17.7477 C 9.4057 17.6257 9.94114 17.555 10.3445 17.896 C 10.8044 18.3178 10.8642 19.0383 10.9327 19.6576 C 10.4726 19.6791 10.0065 19.6506 9.56695 19.4813 C 9.44347 18.8669 9.11079 18.3448 8.94499 17.7477 Z" stroke-linecap="round" />
</g>
		<g transform="matrix(1 0 0 1 -2.09 6.92)"  >
<path style="stroke: none; stroke-width: 1; stroke-dasharray: none; stroke-linecap: butt; stroke-dashoffset: 0; stroke-linejoin: miter; stroke-miterlimit: 4; fill: rgb(13,13,13); fill-rule: nonzero; opacity: 1;" vector-effect="non-scaling-stroke"  transform=" translate(-13.91, -20.42)" d="M 20.387 19.4991 C 21.1749 19.123 21.9856 18.7394 22.8585 18.6553 C 21.4496 19.1809 20.1461 19.9548 18.7921 20.609 C 17.0422 21.4598 15.152 22.1729 13.1936 22.0847 C 12.4714 21.996 11.7517 22.1517 11.0281 22.1441 C 9.63809 22.127 8.23143 22.3065 6.85435 22.0239 C 6.28431 21.8952 5.69002 21.6672 5.31863 21.1725 C 5.12646 20.9348 5.02643 20.6363 4.96922 20.3355 C 5.46995 21.2125 6.4252 21.632 7.34043 21.8485 C 8.47799 22.1012 9.65331 22.1849 10.8131 22.0788 C 12.3683 22.0095 13.9437 22.0239 15.4668 21.6411 C 17.2051 21.2004 18.7834 20.2964 20.387 19.4991 Z" stroke-linecap="round" />
</g>
		<g transform="matrix(1 0 0 1 -2.09 7.42)"  >
<path style="stroke: none; stroke-width: 1; stroke-dasharray: none; stroke-linecap: butt; stroke-dashoffset: 0; stroke-linejoin: miter; stroke-miterlimit: 4; fill: rgb(13,13,13); fill-rule: nonzero; opacity: 1;" vector-effect="non-scaling-stroke"  transform=" translate(-13.91, -20.92)" d="M 21.9137 19.6512 C 22.6946 19.253 23.4582 18.7247 24.3496 18.6553 C 23.3814 19.3299 22.3264 19.8619 21.2655 20.3623 C 17.0892 22.2795 12.509 23.1875 7.94803 23.1927 C 7.04023 23.1979 6.1149 23.1587 5.24217 22.8757 C 4.54978 22.6514 3.90274 22.2012 3.53734 21.541 C 3.52649 21.2623 3.41907 20.9534 3.5251 20.6897 C 3.56072 20.6684 3.63196 20.6263 3.66758 20.6047 C 3.67482 20.9439 3.66981 21.2836 3.6712 21.6228 C 4.06443 22.0333 4.56091 22.3229 5.0841 22.5176 C 5.88698 22.8233 6.7419 22.9457 7.59098 23.0099 C 8.9254 23.0931 10.2634 23.0076 11.5915 22.8625 C 15.1862 22.4718 18.6899 21.33 21.9137 19.6512 Z" stroke-linecap="round" />
</g>
		<g transform="matrix(1 0 0 1 -4.57 7.42)"  >
<path style="stroke: none; stroke-width: 1; stroke-dasharray: none; stroke-linecap: butt; stroke-dashoffset: 0; stroke-linejoin: miter; stroke-miterlimit: 4; fill: rgb(13,13,13); fill-rule: nonzero; opacity: 1;" vector-effect="non-scaling-stroke"  transform=" translate(-11.43, -20.92)" d="M 8.94499 20.7701 C 9.94023 20.7911 10.936 20.7314 11.9296 20.8149 C 12.5865 20.8183 13.2943 20.357 13.9143 21.0753 C 12.8312 20.9593 11.7493 21.171 10.6659 21.1764 C 10.0916 21.1384 9.50111 21.1744 8.94499 20.7701 Z" stroke-linecap="round" />
</g>
</g>
</g>
</svg>
